<?xml version="1.0" standalone="no"?>
<!DOCTYPE svg PUBLIC "-//W3C//DTD SVG 1.1//EN" "http://www.w3.org/Graphics/SVG/1.1/DTD/svg11.dtd">
<!--Generator: Xara Designer (www.xara.com), SVG filter version: 6.6.0.1-->
<svg fill="none" fill-rule="evenodd" stroke="black" stroke-width="0.501" stroke-linejoin="bevel" stroke-miterlimit="10" font-family="Times New Roman" font-size="16" style="font-variant-ligatures:none" xmlns:xlink="http://www.w3.org/1999/xlink" xmlns="http://www.w3.org/2000/svg" version="1.1" overflow="visible" width="224.998pt" height="224.998pt" viewBox="740.252 -237.298 224.998 224.998">
 <defs>
	</defs>
 <g id="Layer 1" transform="scale(1 -1)">
  <g id="Group" stroke-linejoin="miter" stroke="none">
   <rect x="-112.499" y="-112.499" width="224.998" height="224.998" transform="translate(852.752 124.8) rotate(90)" fill="#ffffff"/>
   <g id="Group_1" stroke-width="1.477" fill="#191718">
    <path d="M 852.751,211.799 C 803.493,211.799 763.549,171.864 763.549,122.596 C 763.549,83.185 789.108,49.748 824.552,37.953 C 829.008,37.127 830.646,39.888 830.646,42.244 C 830.646,44.369 830.564,51.398 830.525,58.852 C 805.709,53.455 800.472,69.376 800.472,69.376 C 796.415,79.687 790.568,82.429 790.568,82.429 C 782.473,87.965 791.178,87.851 791.178,87.851 C 800.134,87.222 804.852,78.657 804.852,78.657 C 812.807,65.022 825.72,68.964 830.81,71.244 C 831.611,77.007 833.921,80.944 836.474,83.172 C 816.661,85.426 795.831,93.076 795.831,127.256 C 795.831,136.994 799.317,144.953 805.023,151.2 C 804.097,153.446 801.044,162.519 805.888,174.806 C 805.888,174.806 813.378,177.202 830.423,165.661 C 837.54,167.639 845.171,168.629 852.751,168.664 C 860.332,168.629 867.969,167.639 875.097,165.661 C 892.125,177.202 899.604,174.806 899.604,174.806 C 904.459,162.519 901.406,153.446 900.48,151.2 C 906.199,144.953 909.66,136.994 909.66,127.256 C 909.66,92.993 888.792,85.451 868.929,83.243 C 872.128,80.474 874.978,75.046 874.978,66.723 C 874.978,54.788 874.876,45.182 874.876,42.244 C 874.876,39.87 876.481,37.088 881.002,37.963 C 916.427,49.773 941.954,83.198 941.954,122.596 C 941.954,171.864 902.016,211.799 852.751,211.799 Z" marker-start="none" marker-end="none"/>
    <path d="M 797.335,83.724 C 797.138,83.279 796.44,83.147 795.806,83.451 C 795.157,83.743 794.796,84.347 795.005,84.792 C 795.197,85.247 795.895,85.374 796.542,85.07 C 797.189,84.779 797.558,84.169 797.335,83.724 L 797.335,83.724"/>
    <path d="M 800.948,79.693 C 800.523,79.3 799.691,79.483 799.127,80.107 C 798.542,80.728 798.434,81.56 798.865,81.96 C 799.304,82.353 800.11,82.169 800.694,81.547 C 801.279,80.919 801.393,80.093 800.948,79.693 L 800.948,79.693"/>
    <path d="M 804.465,74.557 C 803.919,74.176 803.023,74.532 802.471,75.325 C 801.924,76.12 801.924,77.071 802.484,77.452 C 803.037,77.833 803.919,77.489 804.478,76.703 C 805.023,75.897 805.023,74.945 804.465,74.557 L 804.465,74.557"/>
    <path d="M 809.284,69.594 C 808.795,69.053 807.753,69.199 806.991,69.935 C 806.211,70.653 805.994,71.675 806.483,72.214 C 806.979,72.753 808.027,72.603 808.795,71.873 C 809.569,71.153 809.804,70.127 809.284,69.594 L 809.284,69.594"/>
    <path d="M 815.931,66.71 C 815.714,66.013 814.712,65.695 813.702,65.992 C 812.691,66.298 812.033,67.116 812.236,67.821 C 812.445,68.526 813.454,68.856 814.47,68.539 C 815.479,68.235 816.139,67.422 815.931,66.71 L 815.931,66.71"/>
    <path d="M 823.231,66.177 C 823.256,65.441 822.399,64.831 821.339,64.818 C 820.272,64.794 819.408,65.389 819.396,66.113 C 819.396,66.856 820.235,67.459 821.3,67.478 C 822.361,67.499 823.231,66.907 823.231,66.177 L 823.231,66.177"/>
    <path d="M 830.025,67.332 C 830.152,66.616 829.414,65.878 828.361,65.682 C 827.326,65.491 826.367,65.936 826.234,66.647 C 826.106,67.382 826.856,68.121 827.89,68.31 C 828.945,68.493 829.89,68.062 830.025,67.332 L 830.025,67.332"/>
   </g>
  </g>
 </g>
 <g id="Layer_1" transform="scale(1 -1)"/>
</svg>
