<?xml version="1.0" standalone="no"?>
<!DOCTYPE svg PUBLIC "-//W3C//DTD SVG 1.1//EN" "http://www.w3.org/Graphics/SVG/1.1/DTD/svg11.dtd">
<!--Generator: Xara Designer (www.xara.com), SVG filter version: 6.6.0.1-->
<svg fill="none" fill-rule="evenodd" stroke="black" stroke-width="0.501" stroke-linejoin="bevel" stroke-miterlimit="10" font-family="Times New Roman" font-size="16" style="font-variant-ligatures:none" xmlns:xlink="http://www.w3.org/1999/xlink" xmlns="http://www.w3.org/2000/svg" version="1.1" overflow="visible" width="225.002pt" height="224.999pt" viewBox="14.298 -473.891 225.002 224.999">
 <defs>
  <linearGradient id="LinearGradient" gradientUnits="userSpaceOnUse" x1="0" y1="0" x2="224.934" y2="0" gradientTransform="matrix(-1 0 0 -1 112.466 -70.792)">
   <stop offset="0" stop-color="#e74824"/>
   <stop offset="1" stop-color="#b62c25"/>
  </linearGradient>
 </defs>
 <g id="Layer 1" transform="scale(1 -1)">
  <g id="Group" stroke-linejoin="miter" stroke="none">
   <rect x="-112.466" y="-112.404" width="224.932" height="224.809" transform="translate(126.752 361.425) rotate(90)" fill="url(#LinearGradient)"/>
   <path d="M 179.995,456.135 L 197.741,456.135 L 197.741,414.699 L 239.3,414.699 L 239.3,397.305 L 197.741,397.305 L 197.741,355.506 L 179.995,355.506 L 179.995,397.305 L 138.582,397.305 L 138.582,414.699 L 179.995,414.699 L 179.995,456.135 Z" fill="#ffffff" marker-start="none" marker-end="none"/>
   <path d="M 119.077,251.92 L 119.096,251.92 C 119.154,252.81 119.151,253.435 119.151,255.167 C 119.151,271.921 103.186,280.749 78.353,298.463 C 75.752,298.8 74.119,298.8 70.87,298.8 C 67.918,298.8 50.279,298.143 36.567,293.547 C 31.877,291.83 23.732,290.737 17.016,281.714 L 14.346,277.094 L 14.298,297.558 L 16.953,298.747 L 16.954,298.756 C 17.097,298.816 17.241,298.877 17.385,298.938 L 17.304,298.903 L 17.304,298.887 C 36.117,306.777 54.948,307.151 67.261,307.985 C 62.683,313.897 57.467,320.114 57.467,330.274 C 57.467,335.85 59.1,339.131 60.731,343.07 C 57.13,342.75 53.551,342.414 50.279,342.414 C 35.681,342.414 26.14,345.488 17.304,352.697 L 17.304,352.686 L 14.346,355.046 L 14.346,435.672 L 17.304,438.234 L 17.303,438.096 C 35.832,453.274 56.113,455.818 73.142,456.135 L 142.161,456.135 L 123.825,441.336 L 103.816,441.336 C 111.833,434.384 123.793,421.947 123.793,399.798 C 123.793,375.538 111.01,364.039 97.297,353.237 C 93.053,348.98 88.157,344.382 88.157,337.154 C 88.157,329.95 93.053,326.017 96.638,323.06 L 108.408,313.897 C 122.769,301.756 141.539,290.596 141.539,267.965 C 141.539,261.902 140.546,258.067 138.626,251.876 L 138.611,251.875 C 138.24,250.72 137.657,248.96 137.657,248.96 C 137.657,248.96 120.024,248.892 118.683,248.892 C 118.891,249.657 119.077,251.92 119.077,251.92 Z M 88.639,363.713 C 94.765,370.737 97.169,379.982 97.169,384.713 C 97.169,408.324 83.489,445.048 56.396,445.048 C 47.897,445.048 38.763,440.786 33.532,434.228 C 27.979,427.338 27.123,418.5 27.123,409.955 C 27.123,387.994 38.651,355.506 66.737,355.506 C 74.896,355.506 83.265,357.587 88.639,363.713 Z" fill="#ffffff" marker-start="none" marker-end="none"/>
  </g>
 </g>
 <g id="Layer_1" transform="scale(1 -1)"/>
</svg>
