<?xml version="1.0" standalone="no"?>
<!DOCTYPE svg PUBLIC "-//W3C//DTD SVG 1.1//EN" "http://www.w3.org/Graphics/SVG/1.1/DTD/svg11.dtd">
<!--Generator: Xara Designer (www.xara.com), SVG filter version: 6.6.0.1-->
<svg fill="none" fill-rule="evenodd" stroke="black" stroke-width="0.501" stroke-linejoin="bevel" stroke-miterlimit="10" font-family="Times New Roman" font-size="16" style="font-variant-ligatures:none" xmlns:xlink="http://www.w3.org/1999/xlink" xmlns="http://www.w3.org/2000/svg" version="1.1" overflow="visible" width="224.999pt" height="224.999pt" viewBox="496.5 -473.89 224.999 224.999">
 <defs>
	</defs>
 <g id="Layer 1" transform="scale(1 -1)">
  <g id="Group" stroke-linejoin="miter" stroke="none">
   <rect x="-112.499" y="-112.499" width="224.999" height="224.999" transform="translate(609 361.391) rotate(90)" fill="#e5b822"/>
   <path d="M 523.59,396.442 L 523.59,327.4 L 541.454,327.4 L 541.454,396.442 L 523.59,396.442 Z" stroke-width="0.621" fill="#010101" marker-start="none" marker-end="none"/>
   <path d="M 579.473,396.442 L 575.344,364.143 L 572.798,381.692 C 572.036,387.353 571.338,392.247 570.635,396.442 L 547.498,396.442 L 547.498,327.4 L 563.136,327.4 L 563.199,372.985 L 569.747,327.4 L 580.874,327.4 L 587.165,374.004 L 587.165,327.4 L 602.745,327.4 L 602.745,396.442 L 579.473,396.442 Z" stroke-width="0.621" fill="#010101" marker-start="none" marker-end="none"/>
   <path d="M 630.461,327.4 C 634.72,327.4 637.965,327.652 640.065,328.099 C 642.223,328.545 644.008,329.37 645.405,330.582 C 646.861,331.722 647.879,333.376 648.451,335.471 C 649.024,337.572 649.407,341.709 649.407,347.874 L 649.407,372.093 C 649.407,378.641 649.155,383.031 648.713,385.252 C 648.33,387.479 647.37,389.516 645.783,391.291 C 644.193,393.139 641.845,394.405 638.789,395.24 C 635.801,395.996 630.781,396.442 622.2,396.442 L 608.847,396.442 L 608.847,327.4 L 630.461,327.4 M 630.66,383.981 C 631.353,383.603 631.8,382.968 631.989,382.075 C 632.246,381.183 632.309,379.15 632.309,376.036 L 632.309,349.271 C 632.309,344.692 631.989,341.894 631.417,340.875 C 630.844,339.793 629.253,339.284 626.712,339.284 L 626.712,384.622 C 628.623,384.622 629.951,384.428 630.66,383.981 Z" stroke-width="0.621" fill="#010101" marker-start="none" marker-end="none"/>
   <path d="M 655.451,396.442 L 655.451,327.4 L 671.535,327.4 L 672.617,331.785 C 674.077,330.01 675.663,328.671 677.447,327.779 C 679.16,326.954 681.769,326.508 683.802,326.508 C 686.659,326.508 689.079,327.211 691.116,328.729 C 693.149,330.194 694.483,331.979 695.055,334.007 C 695.564,336.044 695.885,339.1 695.885,343.232 L 695.885,362.62 C 695.885,366.752 695.754,369.483 695.564,370.759 C 695.375,372.03 694.866,373.363 693.974,374.698 C 693.018,376.036 691.689,377.055 689.972,377.816 C 688.25,378.51 686.217,378.898 683.802,378.898 C 681.769,378.898 679.16,378.452 677.385,377.69 C 675.663,376.861 674.077,375.595 672.617,373.936 L 672.617,396.442 L 655.451,396.442 M 678.651,344.115 C 678.651,340.812 678.466,338.717 678.142,337.829 C 677.831,336.937 676.366,336.49 675.284,336.49 C 674.266,336.49 673.504,336.937 673.189,337.756 C 672.801,338.591 672.617,340.56 672.617,343.606 L 672.617,361.858 C 672.617,364.977 672.801,366.947 673.126,367.708 C 673.441,368.465 674.144,368.853 675.163,368.853 C 676.24,368.853 677.7,368.465 678.078,367.514 C 678.466,366.626 678.651,364.715 678.651,361.858 L 678.651,344.115 Z" stroke-width="0.621" fill="#010101" marker-start="none" marker-end="none"/>
  </g>
 </g>
 <g id="Layer_1" transform="scale(1 -1)"/>
</svg>
