<?xml version="1.0" standalone="no"?>
<!DOCTYPE svg PUBLIC "-//W3C//DTD SVG 1.1//EN" "http://www.w3.org/Graphics/SVG/1.1/DTD/svg11.dtd">
<!--Generator: Xara Designer (www.xara.com), SVG filter version: 6.6.0.1-->
<svg fill="none" fill-rule="evenodd" stroke="black" stroke-width="0.501" stroke-linejoin="bevel" stroke-miterlimit="10" font-family="Times New Roman" font-size="16" style="font-variant-ligatures:none" xmlns:xlink="http://www.w3.org/1999/xlink" xmlns="http://www.w3.org/2000/svg" version="1.1" overflow="visible" width="224.998pt" height="224.998pt" viewBox="255.244 -237.298 224.998 224.998">
 <defs>
  <linearGradient id="LinearGradient" gradientUnits="userSpaceOnUse" x1="0" y1="0" x2="0" y2="-224.998" gradientTransform="matrix(0 -1 1 0 112.498 -70.852)">
   <stop offset="0" stop-color="#ffffff"/>
   <stop offset="1" stop-color="#edeeee"/>
  </linearGradient>
 </defs>
 <g id="Layer 1" transform="scale(1 -1)">
  <g id="Group" stroke-linejoin="miter" stroke="none">
   <rect x="-112.499" y="-112.499" width="224.998" height="224.998" transform="translate(367.744 124.8) rotate(90)" fill="url(#LinearGradient)"/>
   <path d="M 353.014,139.614 C 350.184,142.53 348.768,146.448 348.768,151.374 L 348.768,181.424 C 348.768,185.916 350.218,189.49 353.122,192.152 C 356.024,194.814 359.924,196.144 364.82,196.144 C 369.282,196.144 372.934,194.74 375.784,191.932 C 378.632,189.128 380.056,185.516 380.056,181.098 L 380.056,151.158 C 380.056,146.194 378.658,142.304 375.866,139.478 C 373.072,136.656 369.226,135.242 364.33,135.242 C 359.614,135.242 355.842,136.702 353.014,139.614 Z M 391.098,138.458 C 389.836,140.184 389.204,142.774 389.204,146.224 L 389.204,194.678 L 399.982,194.678 L 399.982,150.24 C 399.982,148.866 400.208,147.872 400.658,147.258 C 401.11,146.642 401.842,146.336 402.854,146.336 C 403.648,146.336 404.648,146.74 405.858,147.554 C 407.066,148.37 408.178,149.41 409.19,150.674 L 409.19,194.678 L 419.968,194.678 L 419.968,136.708 L 409.19,136.708 L 409.19,143.106 C 407.202,140.75 405.136,138.952 402.99,137.718 C 400.84,136.49 398.754,135.87 396.734,135.87 C 394.242,135.87 392.364,136.734 391.098,138.458 Z M 323.052,136.708 L 323.052,167.848 L 308.612,215.292 L 320.838,215.292 L 328.714,183.882 L 329.474,183.882 L 336.986,215.292 L 349.318,215.292 L 335.19,169.316 L 335.19,136.708 L 323.052,136.708 Z M 367.78,146.618 C 368.64,147.506 369.07,148.728 369.07,150.288 L 369.07,181.86 C 369.07,183.126 368.628,184.15 367.75,184.928 C 366.876,185.706 365.726,186.098 364.3,186.098 C 362.986,186.098 361.916,185.706 361.092,184.928 C 360.27,184.15 359.858,183.126 359.858,181.86 L 359.858,150.288 C 359.858,148.692 360.242,147.46 361.012,146.59 C 361.778,145.72 362.872,145.288 364.3,145.288 C 365.76,145.288 366.92,145.732 367.78,146.618 Z" fill="#000000" marker-start="none" marker-end="none"/>
   <path d="M 317.978,30.8 C 306.512,30.8 297.206,39.998 297.206,51.332 C 296.518,60.31 296.22,69.286 296.248,78.264 C 296.22,87.24 296.518,96.218 297.206,105.196 C 297.206,116.532 306.512,125.728 317.978,125.728 C 334.342,126.412 351.086,126.714 368.162,126.682 C 385.24,126.714 401.984,126.412 418.348,125.728 C 429.814,125.728 439.118,116.532 439.118,105.196 C 439.806,96.218 440.106,87.24 440.078,78.264 C 440.106,69.286 439.806,60.31 439.118,51.332 C 439.118,39.998 429.814,30.8 418.348,30.8 C 401.984,30.118 385.24,29.814 368.162,29.846 C 351.086,29.814 334.342,30.118 317.978,30.8 Z" fill="#ff0000" marker-start="none" marker-end="none"/>
   <path d="M 337.554,110.99 L 307.392,110.99 L 307.392,101.754 L 317.558,101.754 L 317.558,47.362 L 327.386,47.362 L 327.386,101.754 L 337.554,101.754 L 337.554,110.99 M 353.616,58.672 C 352.798,57.648 351.898,56.804 350.918,56.146 C 349.938,55.484 349.128,55.158 348.486,55.158 C 347.666,55.158 347.072,55.406 346.708,55.906 C 346.344,56.404 346.158,57.208 346.158,58.32 L 346.158,94.3 L 337.434,94.3 L 337.434,55.068 C 337.434,52.276 337.944,50.18 338.968,48.78 C 339.992,47.384 341.514,46.686 343.528,46.686 C 345.168,46.686 346.856,47.186 348.594,48.182 C 350.336,49.18 352.008,50.636 353.616,52.544 L 353.616,47.362 L 362.342,47.362 L 362.342,94.3 L 353.616,94.3 L 353.616,58.672 M 387.426,94.894 C 386.074,94.894 384.736,94.52 383.414,93.774 C 382.09,93.028 380.844,91.938 379.668,90.508 L 379.668,110.99 L 370.854,110.99 L 370.854,47.362 L 379.668,47.362 L 379.668,50.972 C 380.814,49.542 382.056,48.486 383.392,47.798 C 384.73,47.114 386.25,46.772 387.956,46.772 C 390.542,46.772 392.516,47.654 393.882,49.426 C 395.25,51.196 395.936,53.75 395.936,57.088 L 395.936,83.126 C 395.936,86.962 395.206,89.882 393.752,91.886 C 392.298,93.89 390.188,94.894 387.426,94.894 M 386.952,58.366 C 386.952,56.868 386.7,55.79 386.198,55.13 C 385.694,54.47 384.908,54.142 383.844,54.142 C 383.102,54.142 382.398,54.31 381.734,54.648 C 381.066,54.984 380.376,55.534 379.668,56.298 L 379.668,85.546 C 380.258,86.19 380.86,86.668 381.466,86.976 C 382.074,87.282 382.688,87.438 383.31,87.438 C 384.492,87.438 385.396,87.026 386.02,86.204 C 386.642,85.384 386.952,84.182 386.952,82.6 L 386.952,58.366 M 428.188,69.73 L 428.188,81.682 C 428.188,86.136 427.114,89.548 424.972,91.922 C 422.828,94.298 419.762,95.484 415.77,95.484 C 411.866,95.484 408.68,94.202 406.216,91.64 C 403.75,89.074 402.516,85.754 402.516,81.682 L 402.516,60.614 C 402.516,56.094 403.638,52.544 405.884,49.966 C 408.13,47.384 411.204,46.092 415.112,46.092 C 419.456,46.092 422.72,47.31 424.908,49.746 C 427.094,52.178 428.188,55.802 428.188,60.614 L 428.188,64.138 L 419.206,64.138 L 419.206,60.878 C 419.206,58.114 418.92,56.33 418.342,55.522 C 417.766,54.714 416.754,54.312 415.308,54.312 C 413.916,54.312 412.936,54.788 412.36,55.742 C 411.784,56.698 411.496,58.41 411.496,60.878 L 411.496,69.73 L 428.188,69.73 M 411.496,81.768 C 411.496,83.732 411.798,85.14 412.406,85.99 C 413.01,86.842 414.006,87.268 415.396,87.268 C 416.724,87.268 417.692,86.842 418.298,85.99 C 418.902,85.14 419.206,83.732 419.206,81.768 L 419.206,77.018 L 411.496,77.018 L 411.496,81.768 Z" fill="#ffffff" marker-start="none" marker-end="none"/>
  </g>
 </g>
 <g id="Layer_1" transform="scale(1 -1)"/>
</svg>
