<?xml version="1.0" standalone="no"?>
<!DOCTYPE svg PUBLIC "-//W3C//DTD SVG 1.1//EN" "http://www.w3.org/Graphics/SVG/1.1/DTD/svg11.dtd">
<!--Generator: Xara Designer (www.xara.com), SVG filter version: 6.6.0.1-->
<svg fill="none" fill-rule="evenodd" stroke="black" stroke-width="0.501" stroke-linejoin="bevel" stroke-miterlimit="10" font-family="Times New Roman" font-size="16" style="font-variant-ligatures:none" xmlns:xlink="http://www.w3.org/1999/xlink" xmlns="http://www.w3.org/2000/svg" version="1.1" overflow="visible" width="224.998pt" height="224.998pt" viewBox="14.258 -713.546 224.998 224.998">
 <defs>
	</defs>
 <g id="Layer 1" transform="scale(1 -1)">
  <g id="Group" stroke-linejoin="miter" stroke="none">
   <rect x="-112.499" y="-112.499" width="224.998" height="224.998" transform="translate(126.758 601.048) rotate(90)" fill="#00aced"/>
   <path d="M 65.266,653.66 C 65.266,653.66 86.06,624.548 124.38,623.954 C 124.38,623.954 121.114,649.202 143.098,656.926 C 143.098,656.926 161.812,664.65 174.29,650.096 C 174.29,650.096 188.846,652.472 192.112,656.926 C 192.112,656.926 191.22,647.982 181.12,641.464 C 181.12,641.464 190.332,641.478 196.864,645.044 C 196.864,645.044 187.674,633.55 183.696,631.758 L 183.498,631.674 C 179.638,630.192 187.658,604.344 163.594,573.746 C 163.594,573.746 145.362,549.096 111.31,544.336 C 97.46,542.4 77.148,540.772 56.65,556.218 C 56.65,556.218 77.444,553.546 98.24,568.992 C 98.24,568.992 76.85,570.776 71.8,588.6 C 71.8,588.6 81.604,588.598 83.682,588.896 C 83.682,588.896 60.808,596.622 61.106,618.456 C 61.106,618.456 68.83,615.042 73.138,615.486 C 73.138,615.486 53.826,629.896 65.266,653.66 Z" fill="#ffffff" stroke-width="1.176" marker-start="none" marker-end="none"/>
  </g>
 </g>
 <g id="Layer_1" transform="scale(1 -1)"/>
</svg>
