<?xml version="1.0" standalone="no"?>
<!DOCTYPE svg PUBLIC "-//W3C//DTD SVG 1.1//EN" "http://www.w3.org/Graphics/SVG/1.1/DTD/svg11.dtd">
<!--Generator: Xara Designer (www.xara.com), SVG filter version: 6.6.0.1-->
<svg fill="none" fill-rule="evenodd" stroke="black" stroke-width="0.501" stroke-linejoin="bevel" stroke-miterlimit="10" font-family="Times New Roman" font-size="16" style="font-variant-ligatures:none" xmlns:xlink="http://www.w3.org/1999/xlink" xmlns="http://www.w3.org/2000/svg" version="1.1" overflow="visible" width="225.002pt" height="225.002pt" viewBox="255.754 -713.55 225.002 225.002">
 <defs>
	</defs>
 <g id="Layer 1" transform="scale(1 -1)">
  <g id="Group" stroke-linejoin="miter" stroke="none">
   <rect x="-112.5" y="-112.5" width="225.001" height="225.001" transform="translate(368.256 601.05) rotate(90)" fill="#3c5a98"/>
   <path d="M 464.682,504.622 L 271.826,504.622 L 271.826,536.764 L 464.682,536.764 L 464.682,504.622 Z" stroke-width="1.608" fill="#6d84b3" marker-start="none" marker-end="none"/>
   <path d="M 384.326,504.622 L 384.326,587.338 L 362.452,587.338 L 362.452,617.122 L 384.326,617.122 C 384.326,617.122 384.326,629.324 384.326,642.56 C 384.326,662.548 397.246,680.904 427.014,680.904 C 439.068,680.904 447.982,679.748 447.982,679.748 L 447.28,651.938 C 447.28,651.938 438.19,652.026 428.27,652.026 C 417.536,652.026 415.814,647.078 415.814,638.868 C 415.814,632.376 415.814,652.704 415.814,617.122 L 448.134,617.122 L 446.728,587.338 L 415.814,587.338 L 415.814,504.622 L 384.326,504.622 Z" stroke-width="1.608" fill="#ffffff" marker-start="none" marker-end="none"/>
  </g>
 </g>
 <g id="Layer_1" transform="scale(1 -1)"/>
</svg>
