<?xml version="1.0" standalone="no"?>
<!DOCTYPE svg PUBLIC "-//W3C//DTD SVG 1.1//EN" "http://www.w3.org/Graphics/SVG/1.1/DTD/svg11.dtd">
<!--Generator: Xara Designer (www.xara.com), SVG filter version: 6.7.0.0-->
<svg fill="none" fill-rule="evenodd" stroke="black" stroke-width="0.501" stroke-linejoin="bevel" stroke-miterlimit="10" font-family="Times New Roman" font-size="16" style="font-variant-ligatures:none" xmlns:xlink="http://www.w3.org/1999/xlink" xmlns="http://www.w3.org/2000/svg" version="1.1" overflow="visible" width="224.999pt" height="224.999pt" viewBox="985.501 -473.889 224.999 224.999">
 <defs>
  <linearGradient id="LinearGradient" gradientUnits="userSpaceOnUse" x1="0" y1="0" x2="0" y2="-180.62" gradientTransform="translate(1099.59 451.861)">
   <stop offset="0" stop-color="#6364ff"/>
   <stop offset="1" stop-color="#563acc"/>
  </linearGradient>
 </defs>
 <g id="Foreground" transform="scale(1 -1)">
  <g id="Group" stroke-linejoin="miter" stroke="none">
   <rect x="985.502" y="248.891" width="224.999" height="224.999" fill="#ffffff"/>
   <path d="M 1183.18,411.826 C 1180.54,431.278 1163.4,446.606 1143.08,449.577 C 1139.65,450.078 1126.67,451.907 1096.58,451.907 L 1096.36,451.907 C 1066.27,451.907 1059.81,450.078 1056.38,449.577 C 1036.63,446.69 1018.6,432.915 1014.22,413.234 C 1012.12,403.542 1011.89,392.794 1012.28,382.938 C 1012.84,368.802 1012.95,354.69 1014.25,340.613 C 1015.14,331.261 1016.71,321.984 1018.93,312.851 C 1023.09,295.983 1039.93,281.946 1056.42,276.218 C 1074.09,270.248 1093.08,269.255 1111.29,273.355 C 1113.29,273.816 1115.27,274.352 1117.23,274.961 C 1121.64,276.351 1126.82,277.907 1130.64,280.637 C 1130.69,280.677 1130.73,280.726 1130.76,280.782 C 1130.79,280.841 1130.81,280.903 1130.81,280.968 L 1130.81,294.609 C 1130.81,294.668 1130.79,294.729 1130.77,294.782 C 1130.74,294.835 1130.7,294.884 1130.65,294.921 C 1130.61,294.958 1130.55,294.983 1130.49,294.996 C 1130.43,295.011 1130.37,295.008 1130.31,294.996 C 1118.65,292.241 1106.7,290.861 1094.71,290.883 C 1074.08,290.883 1068.53,300.566 1066.94,304.598 C 1065.67,308.083 1064.85,311.716 1064.53,315.411 C 1064.53,315.473 1064.54,315.534 1064.56,315.59 C 1064.59,315.646 1064.63,315.698 1064.67,315.736 C 1064.72,315.776 1064.78,315.804 1064.84,315.816 C 1064.9,315.828 1064.97,315.828 1065.03,315.813 C 1076.49,313.077 1088.25,311.697 1100.04,311.7 C 1102.88,311.7 1105.71,311.7 1108.55,311.771 C 1120.41,312.103 1132.91,312.703 1144.59,314.956 C 1144.88,315.015 1145.17,315.064 1145.42,315.138 C 1163.83,318.635 1181.35,329.612 1183.13,357.407 C 1183.2,358.5 1183.37,368.867 1183.37,370.002 C 1183.37,373.861 1184.62,397.377 1183.18,411.826 Z M 1154.85,342.473 L 1135.49,342.473 L 1135.49,389.371 C 1135.49,399.246 1131.33,404.281 1122.87,404.281 C 1113.56,404.281 1108.91,398.324 1108.91,386.558 L 1108.91,360.886 L 1089.66,360.886 L 1089.66,386.558 C 1089.66,398.324 1084.99,404.281 1075.69,404.281 C 1067.28,404.281 1063.08,399.246 1063.07,389.371 L 1063.07,342.473 L 1043.73,342.473 L 1043.73,390.795 C 1043.73,400.67 1046.28,408.515 1051.38,414.329 C 1056.63,420.129 1063.53,423.109 1072.09,423.109 C 1082,423.109 1089.49,419.339 1094.48,411.81 L 1099.3,403.814 L 1104.12,411.81 C 1109.11,419.339 1116.6,423.109 1126.49,423.109 C 1135.05,423.109 1141.94,420.129 1147.22,414.329 C 1152.31,408.518 1154.86,400.676 1154.86,390.795 L 1154.85,342.473 Z" marker-start="none" marker-end="none" fill="url(#LinearGradient)"/>
  </g>
 </g>
</svg>
