<?xml version="1.0" standalone="no"?>
<!DOCTYPE svg PUBLIC "-//W3C//DTD SVG 1.1//EN" "http://www.w3.org/Graphics/SVG/1.1/DTD/svg11.dtd">
<!--Generator: Xara Designer (www.xara.com), SVG filter version: 6.7.0.0-->
<svg fill="none" fill-rule="evenodd" stroke="black" stroke-width="0.501" stroke-linejoin="bevel" stroke-miterlimit="10" font-family="Times New Roman" font-size="16" style="font-variant-ligatures:none" xmlns:xlink="http://www.w3.org/1999/xlink" xmlns="http://www.w3.org/2000/svg" version="1.1" overflow="visible" width="450pt" height="172.5pt" viewBox="0 -172.5 450 172.5">
 <defs>
  <linearGradient id="LinearGradient" gradientUnits="userSpaceOnUse" x1="0" y1="0" x2="0" y2="-172.5" gradientTransform="translate(172.469 172.5)">
   <stop offset="0" stop-color="#80aaec"/>
   <stop offset="1" stop-color="#0f3d85"/>
  </linearGradient>
  <linearGradient id="LinearGradient_1" gradientUnits="userSpaceOnUse" x1="0" y1="0" x2="0" y2="-171.75" gradientTransform="translate(171.297 172.5)">
   <stop offset="0" stop-color="#b1cfff"/>
   <stop offset="1" stop-color="#0944a1"/>
  </linearGradient>
  <linearGradient id="LinearGradient_2" gradientUnits="userSpaceOnUse" x1="0" y1="0" x2="0" y2="-165.574" gradientTransform="translate(168.737 169.324)">
   <stop offset="0" stop-color="#ffffff"/>
   <stop offset="1" stop-color="#5296ff"/>
  </linearGradient>
 </defs>
 <g id="Foreground" transform="scale(1 -1)">
  <path d="M 362.652,8.831 C 357.197,13.867 354.468,20.11 354.467,27.56 C 354.468,32.752 355.951,37.592 358.914,42.078 C 361.878,46.562 365.772,49.934 370.598,52.19 C 376.161,54.761 384.371,56.047 395.23,56.047 L 408.057,56.047 L 410.338,61.712 C 406.86,60.254 403.633,59.45 400.658,59.298 L 400.66,59.292 L 400.529,59.291 C 400.227,59.277 399.929,59.272 399.636,59.272 C 399.259,59.272 398.887,59.279 398.519,59.291 L 369.809,59.272 L 369.807,59.272 C 367.864,59.272 366.146,60.189 364.654,62.022 C 364.453,62.269 364.257,62.532 364.063,62.812 L 363.12,64.231 L 345.149,90.435 L 336.334,68.638 C 334.918,65.146 333.25,62.956 331.218,61.621 C 331.215,61.615 331.211,61.612 331.208,61.61 C 331.183,61.591 331.158,61.573 331.095,61.555 C 330.54,61.186 329.954,60.899 329.247,60.666 C 329.101,60.56 328.881,60.489 328.325,60.369 C 328.052,60.274 327.765,60.211 327.458,60.179 C 324.869,59.532 321.55,59.35 318.879,59.35 L 172.706,59.272 C 169.348,59.272 166.528,60.232 164.244,62.144 C 161.964,64.061 160.822,66.408 160.822,69.188 C 160.822,71.077 161.427,73.49 162.632,76.428 L 169.87,94.212 C 170.765,96.467 171.21,98.173 171.21,99.329 C 171.21,102.319 169.216,103.813 165.229,103.811 C 159.878,103.813 155.367,99.25 151.693,90.119 L 142.882,68.478 C 140.099,61.607 135.981,58.171 130.526,58.171 C 128.374,58.171 126.54,58.854 125.017,60.218 C 123.496,61.582 122.734,63.233 122.737,65.174 C 122.734,66.643 123.128,68.373 123.917,70.368 L 124.781,72.492 L 159.013,156.93 C 162.004,164.168 166.096,167.788 171.289,167.788 C 173.44,167.788 175.288,167.067 176.835,165.626 C 178.384,164.181 179.159,162.438 179.159,160.392 C 179.159,158.713 178.476,156.22 177.113,152.916 L 162.162,116.088 C 167.67,119.079 172.208,120.574 175.775,120.574 C 180.811,120.574 184.941,119.171 188.168,116.364 C 191.393,113.558 193.007,109.977 193.007,105.623 C 193.007,102.999 192.378,100.141 191.118,97.044 L 182.857,76.428 L 195.242,76.435 C 194.703,78.693 194.433,81.133 194.433,83.747 C 194.433,93.713 198.026,102.342 205.214,109.636 C 212.401,116.928 220.9,120.574 230.711,120.574 C 238.316,120.574 244.573,118.16 249.479,113.334 C 254.382,108.508 256.837,102.37 256.837,94.92 C 256.837,89.307 255.551,83.731 252.981,78.198 C 252.706,77.608 252.424,77.03 252.132,76.465 L 252.141,76.467 L 257.702,76.469 C 257.954,78.525 258.594,80.819 259.626,83.352 L 270.327,109.636 C 273.316,116.928 277.409,120.574 282.601,120.574 C 284.858,120.574 286.774,119.854 288.347,118.41 C 289.922,116.968 290.707,115.198 290.707,113.098 C 290.707,111.525 290.287,109.714 289.449,107.668 L 288.582,105.543 L 280.321,85.321 L 279.454,82.958 C 278.982,81.593 278.719,80.57 278.669,79.891 C 278.584,77.988 279.555,76.853 281.579,76.483 L 281.991,76.483 L 285.677,76.484 C 290.833,77.081 294.346,79.659 296.215,84.218 L 306.053,108.456 C 308.989,115.8 313.134,119.473 318.486,119.473 C 320.688,119.473 322.578,118.738 324.151,117.269 C 325.724,115.8 326.511,114.043 326.512,111.998 C 326.511,110.372 325.832,107.853 324.467,104.444 L 313.085,76.5 L 313.091,76.5 L 319.531,76.504 L 351.681,155.751 L 352.545,157.874 C 354.958,163.75 358.816,166.686 364.113,166.686 C 366.318,166.686 368.207,165.952 369.78,164.485 C 371.354,163.016 372.139,161.259 372.139,159.21 C 372.139,157.64 371.721,155.829 370.882,153.784 L 370.015,151.657 L 349.949,102.238 L 367.654,115.379 C 371.327,118.107 374.474,119.473 377.097,119.473 C 379.299,119.473 381.138,118.764 382.606,117.346 C 384.076,115.93 384.811,114.172 384.809,112.076 C 384.811,108.559 382.87,105.36 378.987,102.475 L 377.176,101.136 L 365.452,92.559 L 376.32,75.517 L 376.321,75.517 L 380.782,75.52 C 380.974,78.275 382.092,82.17 384.133,87.206 L 392.712,108.378 L 393.578,110.579 C 396.096,116.51 400.004,119.473 405.302,119.473 C 407.61,119.473 409.537,118.738 411.087,117.269 C 412.633,115.8 413.407,113.939 413.407,111.682 C 413.407,110.162 412.724,107.695 411.361,104.283 L 403.65,85.476 C 402.444,82.433 401.814,80.466 401.761,79.574 C 401.604,77.003 403.229,75.717 406.641,75.72 C 409.053,75.717 411.52,76.428 414.038,77.844 C 416.555,79.261 418.156,80.86 418.837,82.643 L 429.381,108.378 L 430.17,110.579 C 432.634,116.51 436.543,119.473 441.895,119.473 C 444.202,119.473 446.131,118.726 447.679,117.23 C 449.227,115.735 450,113.885 450,111.682 C 450,110.162 449.608,108.405 448.821,106.411 L 447.876,104.283 L 428.281,56.047 L 437.408,56.047 C 444.07,56.047 447.404,53.713 447.404,49.043 C 447.404,45.841 446.236,43.349 443.901,41.567 C 441.565,39.784 438.3,38.892 434.103,38.892 L 421.356,38.892 C 419.836,34.38 417.081,28.399 413.094,20.95 C 406.168,7.836 396.096,1.276 382.876,1.276 C 374.85,1.276 368.11,3.795 362.652,8.831 Z M 392.751,23.152 C 395.715,26.143 398.981,31.389 402.549,38.892 L 391.531,38.892 C 379.464,38.892 373.432,35.114 373.432,27.56 C 373.432,24.882 374.258,22.731 375.91,21.106 C 377.565,19.478 379.78,18.667 382.56,18.667 C 386.39,18.667 389.789,20.162 392.751,23.152 Z M 102.74,31.627 C 102.74,36.348 106.573,40.181 111.295,40.181 L 324.696,40.181 C 329.416,40.181 333.249,36.348 333.249,31.627 C 333.249,26.906 329.416,23.072 324.696,23.072 L 111.295,23.072 C 106.573,23.072 102.74,26.906 102.74,31.627 Z M 12.901,33.5 C 6.002,40.452 2.552,49.515 2.552,60.69 C 2.552,75.432 7.982,88.337 18.84,99.407 C 24.664,105.335 31.958,110.107 40.718,113.728 C 49.479,117.346 58.136,119.158 66.686,119.158 C 70.779,119.158 74.097,118.226 76.639,116.364 C 79.185,114.502 80.458,112.076 80.458,109.085 C 80.458,105.833 79.092,103.236 76.364,101.293 C 74.845,100.193 71.803,99.404 67.237,98.935 C 56.744,97.989 48.324,95.603 41.976,91.772 C 36.625,88.52 32.4,84.326 29.307,79.183 C 26.21,74.042 24.664,68.61 24.664,62.892 C 24.664,57.015 26.21,52.374 29.307,48.965 C 32.4,45.554 36.598,43.847 41.898,43.847 C 48.191,43.847 53.701,46.576 58.423,52.034 C 63.144,57.489 68.286,67.062 73.846,80.756 L 101.074,147.881 L 85.729,147.881 C 78.491,147.881 74.87,150.452 74.87,155.592 C 74.87,159.054 76.156,161.769 78.725,163.737 C 81.298,165.704 84.863,166.686 89.427,166.686 L 143.175,166.686 L 148.684,165.428 C 150.888,164.222 151.989,162.072 151.989,158.977 C 151.989,155.514 150.704,152.799 148.132,150.829 C 145.564,148.865 141.996,147.881 137.431,147.881 L 123.108,147.881 L 95.881,80.756 C 89.271,64.492 84.234,53.437 80.773,47.587 C 77.309,41.737 72.851,36.661 67.395,32.361 C 59.366,26.17 50.186,23.073 39.852,23.073 C 28.784,23.073 19.798,26.55 12.901,33.5 Z M 400.549,59.292 L 400.274,59.291 L 400.529,59.291 C 400.535,59.291 400.541,59.291 400.549,59.292 Z M 220.976,76.448 L 222.228,76.449 L 226.138,76.451 C 228.928,76.875 231.161,78.047 232.835,79.968 C 236.402,84.008 238.186,88.627 238.186,93.82 C 238.186,96.81 237.32,99.222 235.59,101.058 C 233.858,102.897 231.603,103.813 228.821,103.811 C 224.94,103.813 221.399,101.897 218.198,98.068 C 214.998,94.238 213.397,90.016 213.401,85.399 C 213.397,80.162 215.923,77.178 220.976,76.448 Z M 252.132,76.465 L 252.077,76.467 L 252.132,76.465 Z" fill-rule="evenodd" stroke="none" stroke-width="0.623" marker-start="none" marker-end="none" fill="url(#LinearGradient)"/>
  <path d="M 360.099,13.543 C 354.645,18.579 351.916,24.822 351.915,32.272 C 351.916,37.464 353.398,42.304 356.362,46.79 C 359.325,51.274 363.219,54.646 368.045,56.902 C 373.609,59.472 381.818,60.759 392.678,60.759 L 405.504,60.759 L 407.785,66.423 C 404.307,64.966 401.08,64.162 398.106,64.01 L 398.108,64.004 L 397.976,64.003 C 397.675,63.989 397.377,63.984 397.084,63.984 C 396.706,63.984 396.334,63.991 395.966,64.003 L 367.256,63.984 L 367.254,63.984 C 365.312,63.984 363.593,64.901 362.101,66.734 C 361.901,66.981 361.704,67.244 361.511,67.524 L 360.568,68.942 L 342.597,95.147 L 333.782,73.35 C 332.365,69.858 330.698,67.668 328.666,66.333 C 328.663,66.327 328.659,66.324 328.656,66.322 C 328.631,66.303 328.606,66.285 328.542,66.267 C 327.988,65.898 327.401,65.611 326.694,65.378 C 326.548,65.271 326.329,65.201 325.772,65.08 C 325.5,64.986 325.213,64.922 324.905,64.891 C 322.317,64.244 318.997,64.062 316.326,64.062 L 170.153,63.984 C 166.796,63.984 163.975,64.944 161.692,66.856 C 159.411,68.773 158.269,71.12 158.269,73.9 C 158.269,75.789 158.875,78.202 160.08,81.14 L 167.318,98.923 C 168.212,101.179 168.657,102.885 168.657,104.041 C 168.657,107.03 166.663,108.525 162.676,108.523 C 157.326,108.525 152.814,103.962 149.141,94.831 L 140.33,73.189 C 137.546,66.319 133.428,62.883 127.973,62.883 C 125.822,62.883 123.987,63.566 122.464,64.929 C 120.942,66.294 120.181,67.945 120.184,69.886 C 120.181,71.355 120.575,73.085 121.364,75.08 L 122.229,77.204 L 156.46,161.641 C 159.452,168.88 163.543,172.5 168.737,172.5 C 170.888,172.5 172.736,171.779 174.283,170.338 C 175.831,168.893 176.606,167.149 176.606,165.104 C 176.606,163.425 175.924,160.932 174.56,157.628 L 159.608,120.8 C 165.117,123.791 169.656,125.286 173.223,125.286 C 178.259,125.286 182.388,123.883 185.615,121.076 C 188.84,118.27 190.455,114.689 190.455,110.335 C 190.455,107.711 189.826,104.853 188.566,101.756 L 180.304,81.14 L 192.688,81.147 C 192.151,83.405 191.88,85.844 191.88,88.458 C 191.88,98.425 195.473,107.054 202.661,114.348 C 209.849,121.64 218.347,125.286 228.158,125.286 C 235.763,125.286 242.02,122.872 246.927,118.045 C 251.83,113.219 254.284,107.082 254.284,99.632 C 254.284,94.019 252.999,88.443 250.428,82.91 C 250.154,82.32 249.871,81.742 249.579,81.177 L 249.588,81.179 L 255.148,81.181 C 255.401,83.236 256.042,85.531 257.072,88.064 L 267.774,114.348 C 270.764,121.64 274.855,125.286 280.049,125.286 C 282.305,125.286 284.221,124.566 285.794,123.122 C 287.369,121.68 288.154,119.91 288.154,117.809 C 288.154,116.236 287.735,114.426 286.897,112.38 L 286.03,110.255 L 277.768,90.033 L 276.902,87.67 C 276.429,86.305 276.167,85.282 276.117,84.602 C 276.03,82.699 277.003,81.565 279.027,81.195 L 279.439,81.195 L 283.124,81.196 C 288.28,81.793 291.793,84.371 293.663,88.93 L 303.501,113.168 C 306.436,120.512 310.582,124.185 315.933,124.185 C 318.136,124.185 320.026,123.45 321.599,121.981 C 323.172,120.512 323.959,118.755 323.96,116.709 C 323.959,115.084 323.279,112.565 321.915,109.155 L 310.533,81.212 L 310.539,81.212 L 316.978,81.216 L 349.129,160.463 L 349.993,162.586 C 352.405,168.462 356.263,171.398 361.561,171.398 C 363.766,171.398 365.654,170.664 367.227,169.197 C 368.801,167.728 369.586,165.97 369.586,163.922 C 369.586,162.352 369.168,160.541 368.329,158.496 L 367.463,156.369 L 347.396,106.95 L 365.102,120.091 C 368.774,122.819 371.921,124.185 374.545,124.185 C 376.747,124.185 378.585,123.475 380.053,122.058 C 381.524,120.642 382.258,118.884 382.256,116.788 C 382.258,113.271 380.318,110.072 376.435,107.187 L 374.623,105.848 L 362.899,97.271 L 373.768,80.229 L 373.769,80.229 L 378.229,80.232 C 378.422,82.987 379.54,86.882 381.581,91.918 L 390.159,113.089 L 391.026,115.291 C 393.543,121.222 397.451,124.185 402.749,124.185 C 405.057,124.185 406.984,123.45 408.534,121.981 C 410.081,120.512 410.855,118.651 410.855,116.394 C 410.855,114.874 410.171,112.407 408.809,108.995 L 401.097,90.187 C 399.891,87.145 399.262,85.177 399.207,84.286 C 399.052,81.715 400.676,80.429 404.089,80.432 C 406.501,80.429 408.967,81.14 411.486,82.556 C 414.003,83.973 415.604,85.571 416.285,87.355 L 426.828,113.089 L 427.616,115.291 C 430.082,121.222 433.991,124.185 439.342,124.185 C 441.65,124.185 443.579,123.438 445.127,121.942 C 446.675,120.447 447.448,118.597 447.448,116.394 C 447.448,114.874 447.056,113.117 446.269,111.122 L 445.323,108.995 L 425.729,60.759 L 434.856,60.759 C 441.518,60.759 444.851,58.425 444.851,53.755 C 444.851,50.553 443.682,48.06 441.347,46.279 C 439.012,44.496 435.747,43.603 431.55,43.603 L 418.803,43.603 C 417.283,39.092 414.528,33.111 410.541,25.662 C 403.616,12.548 393.543,5.988 380.324,5.988 C 372.297,5.988 365.556,8.507 360.099,13.543 Z M 390.199,27.864 C 393.162,30.854 396.428,36.101 399.996,43.603 L 388.978,43.603 C 376.912,43.603 370.88,39.826 370.88,32.272 C 370.88,29.594 371.706,27.442 373.358,25.817 C 375.012,24.19 377.228,23.379 380.008,23.379 C 383.837,23.379 387.236,24.874 390.199,27.864 Z M 100.188,36.339 C 100.188,41.06 104.021,44.893 108.743,44.893 L 322.143,44.893 C 326.863,44.893 330.697,41.06 330.697,36.339 C 330.697,31.617 326.863,27.784 322.143,27.784 L 108.743,27.784 C 104.021,27.784 100.188,31.617 100.188,36.339 Z M 10.348,38.212 C 3.45,45.163 0,54.227 0,65.402 C 0,80.143 5.43,93.049 16.287,104.118 C 22.112,110.047 29.406,114.819 38.166,118.439 C 46.927,122.058 55.583,123.87 64.133,123.87 C 68.227,123.87 71.544,122.938 74.087,121.076 C 76.632,119.213 77.905,116.788 77.905,113.796 C 77.905,110.545 76.54,107.947 73.812,106.005 C 72.292,104.904 69.25,104.116 64.685,103.647 C 54.191,102.701 45.772,100.315 39.424,96.484 C 34.072,93.232 29.848,89.037 26.755,83.895 C 23.658,78.753 22.112,73.322 22.112,67.604 C 22.112,61.727 23.658,57.086 26.755,53.677 C 29.848,50.266 34.045,48.559 39.345,48.559 C 45.639,48.559 51.149,51.288 55.871,56.745 C 60.592,62.201 65.734,71.774 71.294,85.467 L 98.522,152.593 L 83.177,152.593 C 75.938,152.593 72.317,155.164 72.317,160.304 C 72.317,163.766 73.603,166.481 76.173,168.449 C 78.746,170.416 82.311,171.398 86.874,171.398 L 140.622,171.398 L 146.131,170.14 C 148.336,168.934 149.437,166.783 149.437,163.688 C 149.437,160.226 148.151,157.51 145.58,155.541 C 143.011,153.577 139.443,152.593 134.879,152.593 L 120.554,152.593 L 93.328,85.467 C 86.718,69.204 81.681,58.149 78.22,52.297 C 74.756,46.449 70.298,41.373 64.842,37.073 C 56.814,30.882 47.634,27.785 37.3,27.785 C 26.231,27.785 17.246,31.262 10.348,38.212 Z M 397.996,64.004 L 397.722,64.003 L 397.976,64.003 C 397.982,64.003 397.988,64.003 397.996,64.004 Z M 218.423,81.16 L 219.676,81.161 L 223.585,81.163 C 226.376,81.587 228.608,82.759 230.282,84.68 C 233.849,88.72 235.634,93.338 235.634,98.531 C 235.634,101.522 234.768,103.933 233.037,105.77 C 231.306,107.608 229.05,108.525 226.268,108.523 C 222.387,108.525 218.846,106.609 215.645,102.779 C 212.445,98.95 210.844,94.728 210.847,90.111 C 210.844,84.874 213.37,81.889 218.423,81.16 Z M 249.579,81.177 L 249.523,81.179 L 249.579,81.177 Z" stroke="none" stroke-linejoin="round" stroke-width="0.623" fill-rule="evenodd" marker-start="none" marker-end="none" fill="url(#LinearGradient_1)"/>
  <path d="M 362.253,15.876 C 357.452,20.308 355.091,25.705 355.091,32.271 C 355.091,36.817 356.378,41.053 359.012,45.038 C 361.655,49.039 365.1,52.02 369.383,54.021 C 374.315,56.3 381.977,57.583 392.678,57.583 L 405.504,57.583 C 406.8,57.583 407.966,58.37 408.45,59.572 L 410.731,65.236 C 411.781,67.845 409.151,70.439 406.557,69.352 C 403.333,68 400.468,67.309 397.961,67.179 L 397.711,67.174 L 397.05,67.16 C 396.745,67.16 396.408,67.166 396.016,67.179 L 367.252,67.16 C 366.473,67.16 365.597,67.47 364.606,68.688 L 364.106,69.356 L 363.199,70.719 L 345.216,96.943 C 343.786,99.027 340.6,98.68 339.653,96.337 L 330.837,74.542 C 330.204,72.98 329.553,71.807 328.895,70.915 L 326.928,68.995 L 326.782,68.911 C 326.476,68.706 326.148,68.542 325.698,68.393 C 325.602,68.361 325.504,68.324 325.411,68.283 L 325.298,68.233 L 325.057,68.174 L 324.181,67.984 C 321.93,67.421 318.923,67.238 316.325,67.238 L 170.152,67.16 C 167.442,67.16 165.372,67.916 163.733,69.289 C 162.112,70.651 161.445,72.134 161.445,73.9 C 161.445,75.184 161.876,77.15 163.019,79.937 L 170.264,97.739 C 171.187,100.064 171.833,102.245 171.833,104.041 C 171.833,109.572 167.508,111.701 162.675,111.699 C 155.175,111.701 149.923,105.286 146.196,96.022 L 137.386,74.384 C 134.878,68.19 131.653,66.059 127.973,66.059 C 126.561,66.059 125.492,66.481 124.583,67.294 C 123.693,68.092 123.359,68.9 123.361,69.886 C 123.359,70.817 123.613,72.132 124.312,73.897 L 125.171,76.008 L 159.399,160.437 C 162.184,167.175 165.444,169.324 168.737,169.324 C 170.099,169.324 171.169,168.897 172.116,168.014 C 173.047,167.145 173.43,166.232 173.43,165.104 C 173.43,164.093 172.967,162.095 171.621,158.831 L 156.665,121.994 C 155.548,119.242 158.513,116.591 161.123,118.008 C 166.471,120.911 170.447,122.11 173.223,122.11 C 177.635,122.11 180.981,120.896 183.53,118.679 C 186.047,116.488 187.278,113.788 187.278,110.335 C 187.278,108.216 186.769,105.768 185.62,102.945 L 177.355,82.321 C 176.52,80.236 178.06,77.961 180.305,77.963 L 192.689,77.971 C 194.738,77.972 196.251,79.888 195.777,81.881 C 195.304,83.872 195.056,86.063 195.056,88.458 C 195.056,97.565 198.302,105.4 204.923,112.118 C 211.543,118.834 219.237,122.11 228.158,122.11 C 235.025,122.11 240.451,119.96 244.698,115.78 C 248.943,111.604 251.108,106.307 251.108,99.632 C 251.108,94.519 249.94,89.398 247.548,84.248 C 247.292,83.696 247.025,83.153 246.753,82.619 C 245.677,80.509 247.216,78 249.584,78.002 L 255.149,78.005 C 256.752,78.005 258.105,79.202 258.3,80.793 C 258.51,82.498 259.057,84.516 260.014,86.866 L 270.714,113.146 C 273.505,119.953 276.769,122.11 280.049,122.11 C 281.56,122.11 282.695,121.654 283.648,120.78 C 284.577,119.929 284.978,119.004 284.978,117.809 C 284.978,116.78 284.697,115.39 283.956,113.582 L 283.089,111.455 L 274.805,91.18 L 273.909,88.735 C 273.416,87.308 273.031,85.955 272.946,84.791 C 272.776,81.064 275.066,78.689 278.455,78.07 C 278.644,78.036 278.835,78.019 279.027,78.019 L 279.439,78.019 L 283.124,78.02 C 283.246,78.02 283.37,78.027 283.489,78.041 C 289.718,78.763 294.265,82.026 296.603,87.73 L 306.446,111.981 C 309.172,118.8 312.479,121.009 315.933,121.009 C 317.352,121.009 318.461,120.564 319.43,119.659 C 320.398,118.756 320.783,117.823 320.783,116.709 C 320.783,115.745 320.321,113.721 318.969,110.343 L 307.593,82.409 C 306.744,80.322 308.284,78.034 310.537,78.036 L 316.979,78.04 C 318.271,78.04 319.435,78.824 319.921,80.022 L 352.07,159.266 L 352.932,161.384 C 354.975,166.36 357.844,168.222 361.561,168.222 C 362.983,168.222 364.091,167.778 365.06,166.874 C 366.026,165.972 366.41,165.042 366.41,163.922 C 366.41,162.895 366.131,161.505 365.389,159.697 L 364.521,157.565 L 344.453,108.144 C 343.251,105.183 346.722,102.495 349.289,104.399 L 366.995,117.541 C 370.485,120.132 372.948,121.009 374.545,121.009 C 375.995,121.009 377.021,120.569 377.848,119.771 C 378.679,118.97 379.081,118.048 379.079,116.788 C 379.081,114.621 377.943,112.263 374.543,109.738 L 372.741,108.407 L 361.024,99.834 C 359.672,98.845 359.32,96.975 360.221,95.563 L 371.089,78.521 C 371.674,77.606 372.684,77.052 373.77,77.053 L 378.231,77.056 C 379.897,77.057 381.281,78.347 381.397,80.011 C 381.554,82.246 382.511,85.758 384.524,90.725 L 393.109,111.911 L 393.965,114.088 C 396.102,119.122 399.035,121.009 402.749,121.009 C 404.314,121.009 405.438,120.538 406.348,119.676 C 407.223,118.845 407.679,117.835 407.679,116.394 C 407.679,115.55 407.226,113.596 405.864,110.186 L 398.151,91.374 C 396.998,88.466 396.128,85.982 396.036,84.477 C 395.721,79.241 399.812,77.252 404.088,77.255 C 407.145,77.252 410.144,78.157 413.042,79.787 C 415.886,81.387 418.2,83.464 419.238,86.186 L 429.767,111.884 L 429.818,112.019 L 430.561,114.094 L 432.276,117.282 C 434.159,119.942 436.51,121.009 439.342,121.009 C 440.893,121.009 442.01,120.536 442.919,119.657 C 443.83,118.777 444.272,117.76 444.272,116.394 C 444.272,115.398 444.009,114.05 443.338,112.351 L 442.4,110.237 L 422.785,61.954 C 421.938,59.869 423.477,57.583 425.729,57.583 L 434.856,57.583 C 440.892,57.583 441.675,55.722 441.675,53.755 C 441.675,51.44 440.889,49.924 439.419,48.804 C 437.83,47.59 435.339,46.779 431.55,46.779 L 418.803,46.779 C 417.44,46.779 416.228,45.908 415.792,44.617 C 414.357,40.353 411.698,34.554 407.736,27.153 C 401.274,14.916 392.199,9.164 380.324,9.164 C 373.025,9.164 367.073,11.427 362.253,15.876 Z M 392.454,25.628 C 395.81,29.013 399.262,34.665 402.864,42.239 C 403.865,44.343 402.326,46.779 399.996,46.779 L 388.978,46.779 C 376.651,46.779 367.704,42.769 367.704,32.272 C 367.704,28.886 368.775,25.869 371.13,23.553 C 373.494,21.227 376.572,20.203 380.008,20.203 C 384.772,20.203 388.959,22.101 392.454,25.628 Z M 103.364,36.339 C 103.364,39.306 105.774,41.717 108.743,41.717 L 322.143,41.717 C 325.109,41.717 327.521,39.306 327.521,36.339 C 327.521,33.371 325.109,30.96 322.143,30.96 L 108.743,30.96 C 105.774,30.96 103.364,33.371 103.364,36.339 Z M 12.602,40.448 C 6.378,46.72 3.176,54.937 3.176,65.402 C 3.176,79.264 8.246,91.383 18.553,101.892 C 24.038,107.475 30.957,112.023 39.378,115.504 C 47.797,118.98 56.042,120.694 64.133,120.694 C 67.753,120.694 70.354,119.873 72.21,118.512 C 73.991,117.209 74.729,115.71 74.729,113.796 C 74.729,111.609 73.891,109.96 71.958,108.584 C 71.194,108.03 68.957,107.278 64.379,106.808 C 53.615,105.838 44.679,103.365 37.778,99.2 C 32.004,95.691 27.402,91.134 24.033,85.532 C 20.653,79.921 18.936,73.927 18.936,67.604 C 18.936,61.164 20.64,55.682 24.403,51.542 C 28.189,47.366 33.297,45.383 39.345,45.383 C 46.7,45.383 53.044,48.625 58.272,54.666 C 63.353,60.537 68.652,70.521 74.236,84.272 L 101.464,151.399 C 102.31,153.484 100.771,155.769 98.522,155.769 L 83.177,155.769 C 76.607,155.769 75.493,157.834 75.493,160.304 C 75.493,162.856 76.38,164.606 78.103,165.926 C 79.934,167.326 82.729,168.222 86.874,168.222 L 140.263,168.222 L 144.765,167.193 L 145.783,166.174 C 146.08,165.603 146.261,164.815 146.261,163.688 C 146.261,161.134 145.374,159.384 143.649,158.062 C 141.822,156.666 139.024,155.769 134.879,155.769 L 120.554,155.769 C 119.261,155.769 118.097,154.984 117.611,153.786 L 90.385,86.662 C 83.77,70.388 78.812,59.538 75.486,53.915 C 72.227,48.411 68.03,43.63 62.889,39.577 C 55.44,33.834 46.946,30.961 37.3,30.961 C 26.957,30.961 18.824,34.181 12.602,40.448 Z M 218.425,77.984 L 219.678,77.985 L 223.586,77.987 C 223.746,77.987 223.905,77.999 224.063,78.022 C 227.509,78.546 230.453,80.042 232.669,82.584 C 236.721,87.174 238.81,92.532 238.81,98.531 C 238.81,102.173 237.733,105.416 235.348,107.947 C 232.952,110.491 229.824,111.701 226.267,111.699 C 221.19,111.701 216.826,109.144 213.208,104.816 C 209.572,100.464 207.667,95.534 207.67,90.11 C 207.667,83.358 211.291,78.98 217.969,78.016 C 218.12,77.994 218.273,77.983 218.425,77.984 Z" stroke="none" stroke-linejoin="round" stroke-width="0.623" marker-start="none" marker-end="none" fill="url(#LinearGradient_2)"/>
 </g>
 <g id="Layer_1" transform="scale(1 -1)"/>
</svg>
