<?xml version="1.0" standalone="no"?>
<!DOCTYPE svg PUBLIC "-//W3C//DTD SVG 1.1//EN" "http://www.w3.org/Graphics/SVG/1.1/DTD/svg11.dtd">
<!--Generator: Xara Designer (www.xara.com), SVG filter version: 6.7.0.0-->
<svg fill="none" fill-rule="evenodd" stroke="black" stroke-width="0.501" stroke-linejoin="bevel" stroke-miterlimit="10" font-family="Times New Roman" font-size="16" style="font-variant-ligatures:none" xmlns:xlink="http://www.w3.org/1999/xlink" xmlns="http://www.w3.org/2000/svg" version="1.1" overflow="visible" width="453.6pt" height="131.85pt" viewBox="-0.375 -128.625 453.6 131.85">
 <defs>
	</defs>
 <g id="Foreground" transform="scale(1 -1)">
  <g id="Group" stroke-width="0.75" stroke="#ff0000" stroke-linejoin="miter">
   <g id="Group_1">
    <path d="M 49.799,101.025 L 49.799,33.445 L 21.601,33.445 L 21.601,101.025 L 0,101.025 L 0,128.25 L 71.331,128.25 L 71.331,101.025 L 49.799,101.025 Z" marker-start="none" marker-end="none"/>
    <path d="M 105.78,128.25 L 105.78,99.288 C 110.179,102.483 114.579,104.081 118.977,104.081 C 125.644,104.081 130.933,101.673 134.847,96.858 C 138.758,92.042 140.716,85.536 140.716,77.341 L 140.716,33.445 L 114.741,33.445 L 114.741,70.047 C 114.741,73.013 114.429,75.004 113.802,76.021 C 113.178,77.041 111.961,77.549 110.155,77.549 C 107.238,77.549 105.78,75.397 105.78,71.09 L 105.78,33.445 L 79.804,33.445 L 79.804,128.25 L 105.78,128.25 Z" marker-start="none" marker-end="none"/>
    <path d="M 188.71,104.15 C 198.524,104.15 206.94,100.62 213.956,93.559 C 220.971,86.498 224.478,78.035 224.478,68.172 C 224.478,58.17 220.926,49.651 213.818,42.614 C 206.711,35.575 198.133,32.056 188.085,32.056 C 178.037,32.056 169.447,35.587 162.318,42.648 C 155.186,49.71 151.622,58.217 151.622,68.172 C 151.622,78.313 155.186,86.846 162.318,93.766 C 169.447,100.689 178.245,104.15 188.71,104.15 Z M 188.014,78.521 C 185.236,78.521 182.876,77.515 180.93,75.5 C 178.986,73.487 178.014,71.021 178.014,68.103 C 178.014,65.233 178.998,62.777 180.965,60.74 C 182.933,58.703 185.282,57.686 188.014,57.686 C 190.794,57.686 193.167,58.703 195.134,60.74 C 197.102,62.777 198.086,65.233 198.086,68.103 C 198.086,71.021 197.114,73.487 195.168,75.5 C 193.224,77.515 190.839,78.521 188.014,78.521 Z" marker-start="none" marker-end="none"/>
    <path d="M 235.314,101.72 L 261.29,101.72 L 261.29,62.617 C 261.29,58.682 262.933,56.714 266.223,56.712 C 269.463,56.714 271.085,58.682 271.085,62.617 L 271.085,101.72 L 297.06,101.72 L 297.06,63.103 C 297.06,54.12 294.075,46.538 288.1,40.356 C 282.128,34.174 274.811,31.084 266.151,31.084 C 256.289,31.084 248.349,34.672 242.33,41.849 C 237.653,47.452 235.314,55.23 235.314,65.185 L 235.314,101.72 Z" marker-start="none" marker-end="none"/>
    <path d="M 338.176,128.25 L 338.176,33.445 L 312.2,33.445 L 312.2,128.25 L 338.176,128.25 Z M 377.974,102.692 L 365.263,77.479 L 384.156,33.445 L 355.401,33.445 L 339.149,78.661 L 350.956,102.692 L 377.974,102.692 Z" marker-start="none" marker-end="none"/>
    <path d="M 0,0 L 0,22.571 L 407.077,23.443 C 415.504,23.443 420.967,28.19 423.468,37.683 C 418.93,34.996 414.485,33.653 410.133,33.653 C 403.696,33.653 398.396,36.049 394.227,40.842 C 390.061,45.635 387.976,51.735 387.976,59.144 L 387.976,102.692 L 413.952,102.692 L 413.952,65.464 C 413.954,61.343 415.666,59.282 419.092,59.282 C 422.38,59.282 424.023,61.552 424.023,66.088 L 424.023,102.692 L 450,102.692 L 450,40.877 C 450,29.348 446.759,20.041 440.277,12.956 C 432.542,4.528 423.19,0.314 412.217,0.314 L 0,0 Z" marker-start="none" marker-end="none"/>
   </g>
  </g>
  <g id="Group_2" stroke="#0003ff" stroke-width="0.75" stroke-linejoin="miter">
   <g id="Group_3">
    <path d="M 52.649,98.175 L 52.649,30.595 L 24.451,30.595 L 24.451,98.175 L 2.85,98.175 L 2.85,125.4 L 74.181,125.4 L 74.181,98.175 L 52.649,98.175 Z" marker-start="none" marker-end="none"/>
    <path d="M 108.63,125.4 L 108.63,96.438 C 113.029,99.633 117.429,101.231 121.827,101.231 C 128.494,101.231 133.783,98.823 137.697,94.008 C 141.608,89.192 143.566,82.686 143.566,74.491 L 143.566,30.595 L 117.591,30.595 L 117.591,67.197 C 117.591,70.163 117.279,72.154 116.652,73.171 C 116.028,74.191 114.811,74.699 113.005,74.699 C 110.088,74.699 108.63,72.547 108.63,68.24 L 108.63,30.595 L 82.654,30.595 L 82.654,125.4 L 108.63,125.4 Z" marker-start="none" marker-end="none"/>
    <path d="M 191.56,101.3 C 201.374,101.3 209.79,97.77 216.806,90.709 C 223.821,83.648 227.328,75.185 227.328,65.322 C 227.328,55.32 223.776,46.801 216.668,39.764 C 209.561,32.725 200.983,29.206 190.935,29.206 C 180.887,29.206 172.297,32.737 165.168,39.798 C 158.036,46.86 154.472,55.367 154.472,65.322 C 154.472,75.463 158.036,83.996 165.168,90.916 C 172.297,97.839 181.095,101.3 191.56,101.3 Z M 190.864,75.671 C 188.086,75.671 185.726,74.665 183.78,72.65 C 181.836,70.637 180.864,68.171 180.864,65.253 C 180.864,62.383 181.848,59.927 183.815,57.89 C 185.783,55.853 188.132,54.836 190.864,54.836 C 193.644,54.836 196.017,55.853 197.984,57.89 C 199.952,59.927 200.936,62.383 200.936,65.253 C 200.936,68.171 199.964,70.637 198.018,72.65 C 196.074,74.665 193.689,75.671 190.864,75.671 Z" marker-start="none" marker-end="none"/>
    <path d="M 238.164,98.87 L 264.14,98.87 L 264.14,59.767 C 264.14,55.832 265.783,53.864 269.073,53.862 C 272.313,53.864 273.935,55.832 273.935,59.767 L 273.935,98.87 L 299.91,98.87 L 299.91,60.253 C 299.91,51.27 296.925,43.688 290.95,37.506 C 284.978,31.324 277.661,28.234 269.001,28.234 C 259.139,28.234 251.199,31.822 245.18,38.999 C 240.503,44.602 238.164,52.38 238.164,62.335 L 238.164,98.87 Z" marker-start="none" marker-end="none"/>
    <path d="M 341.026,125.4 L 341.026,30.595 L 315.05,30.595 L 315.05,125.4 L 341.026,125.4 Z M 380.824,99.842 L 368.113,74.629 L 387.006,30.595 L 358.251,30.595 L 341.999,75.811 L 353.806,99.842 L 380.824,99.842 Z" marker-start="none" marker-end="none"/>
    <path d="M 2.85,-2.85 L 2.85,19.721 L 409.927,20.593 C 418.354,20.593 423.817,25.34 426.318,34.833 C 421.78,32.146 417.335,30.803 412.983,30.803 C 406.546,30.803 401.246,33.199 397.077,37.992 C 392.911,42.785 390.826,48.885 390.826,56.294 L 390.826,99.842 L 416.802,99.842 L 416.802,62.614 C 416.804,58.493 418.516,56.432 421.942,56.432 C 425.23,56.432 426.873,58.702 426.873,63.238 L 426.873,99.842 L 452.85,99.842 L 452.85,38.027 C 452.85,26.498 449.609,17.191 443.127,10.106 C 435.392,1.678 426.04,-2.536 415.067,-2.536 L 2.85,-2.85 Z" marker-start="none" marker-end="none"/>
   </g>
  </g>
 </g>
 <g id="Layer_1" transform="scale(1 -1)"/>
</svg>
